<svg width="159" height="33" viewBox="0 0 159 33" fill="none" xmlns="http://www.w3.org/2000/svg">
<path d="M14.854 4.39636V27.7297M23.1036 7.81345L6.60447 24.3126M26.5207 16.063H3.18738M23.1036 24.3126L6.60447 7.81345" stroke="#0059E7" stroke-width="2.5" stroke-linecap="round" stroke-linejoin="round"/>
<path d="M39.7993 25.3912C38.7238 25.3912 37.6938 25.2089 36.7095 24.8443C35.7251 24.4615 34.8683 24.0149 34.1392 23.5045V19.8951C34.9412 20.4784 35.8436 20.9706 36.8462 21.3716C37.867 21.7727 38.9243 21.9732 40.0181 21.9732C40.7837 21.9732 41.4126 21.8 41.9048 21.4537C42.4152 21.1073 42.6704 20.6334 42.6704 20.0318C42.6704 19.7219 42.561 19.4485 42.3423 19.2115C42.1418 18.9563 41.8774 18.7375 41.5493 18.5552C41.2394 18.3547 40.9022 18.1907 40.5376 18.063L37.7212 16.9693C36.7733 16.6047 36.035 16.1672 35.5063 15.6568C34.9777 15.1464 34.604 14.5813 34.3853 13.9615C34.1847 13.3235 34.0845 12.649 34.0845 11.938C34.0845 10.8078 34.3853 9.83258 34.9868 9.01227C35.6066 8.17373 36.4087 7.52659 37.3931 7.07086C38.3957 6.61513 39.4621 6.38727 40.5923 6.38727C41.6678 6.38727 42.6431 6.5331 43.5181 6.82477C44.3931 7.11643 45.1222 7.45367 45.7056 7.83649V11.4459C45.0493 11.0266 44.3201 10.6529 43.5181 10.3248C42.7342 9.97841 41.8683 9.80524 40.9204 9.80524C40.4465 9.80524 39.9907 9.88727 39.5532 10.0513C39.1157 10.2154 38.7511 10.4524 38.4595 10.7623C38.186 11.0722 38.0493 11.4641 38.0493 11.938C38.0493 12.5396 38.3136 13.0045 38.8423 13.3326C39.3709 13.6425 40.0181 13.9615 40.7837 14.2896L42.9712 15.2193C44.2655 15.7662 45.2134 16.4133 45.8149 17.1607C46.4347 17.8899 46.7446 18.7831 46.7446 19.8404C46.7446 20.9341 46.4256 21.9003 45.7876 22.7388C45.1678 23.5591 44.3293 24.2063 43.272 24.6802C42.2329 25.1542 41.0754 25.3912 39.7993 25.3912ZM54.8121 25.3912C53.609 25.3912 52.5335 25.1542 51.5856 24.6802C50.6559 24.2063 49.9176 23.5318 49.3707 22.6568C48.8421 21.7636 48.5778 20.7063 48.5778 19.4849V11.2545H52.1051V18.856C52.1051 19.9133 52.3512 20.7154 52.8434 21.2623C53.3538 21.7909 54.01 22.0552 54.8121 22.0552C55.6142 22.0552 56.2613 21.7909 56.7535 21.2623C57.264 20.7154 57.5192 19.9133 57.5192 18.856V11.2545H61.0465V19.4849C61.0465 20.7063 60.7731 21.7636 60.2262 22.6568C59.6793 23.5318 58.9319 24.2063 57.984 24.6802C57.0543 25.1542 55.997 25.3912 54.8121 25.3912ZM71.7937 25.4732C70.7729 25.4732 69.8796 25.2089 69.114 24.6802C68.3484 24.1334 67.765 23.4862 67.364 22.7388V25.063H63.8913V5.37555H67.364V12.813C67.8744 12.2297 68.5033 11.7649 69.2507 11.4185C70.0163 11.0722 70.782 10.899 71.5476 10.899C72.7325 10.899 73.808 11.1907 74.7742 11.774C75.7585 12.3573 76.5333 13.1959 77.0984 14.2896C77.6817 15.3834 77.9734 16.705 77.9734 18.2545C77.9734 19.7857 77.6908 21.0891 77.1257 22.1646C76.5606 23.2401 75.8041 24.0604 74.8562 24.6255C73.9265 25.1907 72.9057 25.4732 71.7937 25.4732ZM70.9187 21.9732C71.6114 21.9732 72.213 21.8091 72.7234 21.481C73.2338 21.1347 73.6348 20.6789 73.9265 20.1138C74.2182 19.5487 74.364 18.9289 74.364 18.2545C74.364 17.5617 74.2182 16.9146 73.9265 16.313C73.6348 15.7115 73.2247 15.2284 72.696 14.8638C72.1856 14.4992 71.5658 14.317 70.8367 14.317C70.1622 14.317 69.5424 14.4719 68.9773 14.7818C68.4122 15.0735 67.8744 15.4836 67.364 16.0123V17.981C67.364 18.8013 67.5281 19.5123 67.8562 20.1138C68.2025 20.7154 68.6492 21.1802 69.196 21.5084C69.7429 21.8183 70.3171 21.9732 70.9187 21.9732ZM84.5643 25.063V6.74274H88.3651V25.063H84.5643ZM78.9315 10.024V6.74274H93.9979V10.024H78.9315ZM95.8857 25.063V11.2545H99.3584V25.063H95.8857ZM99.3584 17.3521V13.8521C99.8323 13.0318 100.388 12.3482 101.026 11.8013C101.683 11.2545 102.421 10.981 103.241 10.981C103.752 10.981 104.198 11.063 104.581 11.2271V15.1373C104.308 14.9732 104.016 14.8547 103.706 14.7818C103.414 14.6907 103.095 14.6451 102.749 14.6451C101.965 14.6451 101.3 14.9094 100.753 15.438C100.224 15.9485 99.7594 16.5865 99.3584 17.3521ZM111.363 25.4732C110.27 25.4732 109.249 25.1907 108.301 24.6255C107.371 24.0604 106.615 23.2401 106.031 22.1646C105.466 21.0891 105.184 19.7857 105.184 18.2545C105.184 16.705 105.466 15.3834 106.031 14.2896C106.615 13.1959 107.389 12.3573 108.356 11.774C109.34 11.1907 110.425 10.899 111.609 10.899C112.375 10.899 113.132 11.0722 113.879 11.4185C114.645 11.7649 115.283 12.2297 115.793 12.813V11.2545H119.266V25.063H115.793V22.7388C115.392 23.4862 114.809 24.1334 114.043 24.6802C113.277 25.2089 112.384 25.4732 111.363 25.4732ZM112.238 22.0005C112.858 22.0005 113.432 21.8365 113.961 21.5084C114.508 21.1802 114.955 20.7154 115.301 20.1138C115.647 19.5123 115.811 18.8013 115.793 17.981V16.0123C115.301 15.4836 114.763 15.0644 114.18 14.7545C113.615 14.4446 112.995 14.2896 112.32 14.2896C111.591 14.2896 110.962 14.481 110.434 14.8638C109.923 15.2284 109.522 15.7115 109.231 16.313C108.939 16.9146 108.793 17.5617 108.793 18.2545C108.793 18.9289 108.939 19.5578 109.231 20.1412C109.522 20.7063 109.923 21.162 110.434 21.5084C110.962 21.8365 111.564 22.0005 112.238 22.0005ZM128.7 25.4732C127.661 25.4732 126.695 25.2818 125.802 24.899C124.927 24.5162 124.161 23.9875 123.505 23.313C122.849 22.6386 122.338 21.8638 121.974 20.9888C121.627 20.1138 121.454 19.1933 121.454 18.2271C121.454 17.261 121.627 16.3404 121.974 15.4654C122.338 14.5904 122.849 13.8157 123.505 13.1412C124.161 12.4485 124.927 11.9016 125.802 11.5005C126.695 11.0995 127.661 10.899 128.7 10.899C129.739 10.899 130.578 11.063 131.216 11.3912C131.872 11.7193 132.392 12.0383 132.775 12.3482V15.5474C132.301 15.2011 131.763 14.9094 131.161 14.6724C130.578 14.4354 129.858 14.317 129.001 14.317C128.308 14.317 127.661 14.4901 127.06 14.8365C126.476 15.1828 126.012 15.6477 125.665 16.231C125.319 16.8144 125.146 17.4797 125.146 18.2271C125.146 18.9745 125.31 19.6399 125.638 20.2232C125.966 20.8065 126.422 21.2714 127.005 21.6177C127.607 21.9459 128.272 22.1099 129.001 22.1099C129.858 22.1099 130.578 21.9914 131.161 21.7545C131.763 21.5175 132.301 21.2349 132.775 20.9068V24.0787C132.392 24.4068 131.872 24.7258 131.216 25.0357C130.578 25.3274 129.739 25.4732 128.7 25.4732ZM137.561 21.8091V17.8443L143.85 11.2545H148.061L137.561 21.8091ZM134.744 25.063V5.37555H138.217V25.063H134.744ZM143.987 25.063L139.174 18.5279L141.362 16.149L148.362 25.063H143.987ZM149.511 25.063V11.2545H152.984V25.063H149.511ZM152.984 17.3521V13.8521C153.458 13.0318 154.014 12.3482 154.652 11.8013C155.308 11.2545 156.046 10.981 156.867 10.981C157.377 10.981 157.824 11.063 158.207 11.2271V15.1373C157.933 14.9732 157.641 14.8547 157.332 14.7818C157.04 14.6907 156.721 14.6451 156.374 14.6451C155.591 14.6451 154.925 14.9094 154.378 15.438C153.85 15.9485 153.385 16.5865 152.984 17.3521Z" fill="#0059E7"/>
</svg>
